<svg xmlns="http://www.w3.org/2000/svg" width="24" height="24" fill="none"><path stroke="#090937" stroke-linecap="round" stroke-linejoin="round" stroke-width="2" d="M2 2h2.22222l.44445 2.22222m1.77777 8.88888H17.5556L22 4.22222H4.66667m1.77777 8.88888L4.66667 4.22222m1.77777 8.88888-2.54765 2.5477c-.69997.6999-.20422 1.8968.78567 1.8968H17.5556m0 0c-1.2273 0-2.2223.9949-2.2223 2.2222S16.3283 22 17.5556 22s2.2222-.9949 2.2222-2.2222-.9949-2.2222-2.2222-2.2222Zm-8.88893 2.2222c0 1.2273-.99493 2.2222-2.22223 2.2222-1.22729 0-2.22222-.9949-2.22222-2.2222s.99493-2.2222 2.22222-2.2222c1.2273 0 2.22223.9949 2.22223 2.2222Z"/></svg>