<svg width="18" height="18" viewBox="0 0 18 18" fill="none" xmlns="http://www.w3.org/2000/svg">
<path d="M1 1H2.77778L3.13333 2.77778M4.55556 9.88889H13.4444L17 2.77778H3.13333M4.55556 9.88889L3.13333 2.77778M4.55556 9.88889L2.51743 11.927C1.95746 12.487 2.35405 13.4444 3.14597 13.4444H13.4444M13.4444 13.4444C12.4626 13.4444 11.6667 14.2404 11.6667 15.2222C11.6667 16.2041 12.4626 17 13.4444 17C14.4263 17 15.2222 16.2041 15.2222 15.2222C15.2222 14.2404 14.4263 13.4444 13.4444 13.4444ZM6.33333 15.2222C6.33333 16.2041 5.5374 17 4.55556 17C3.57372 17 2.77778 16.2041 2.77778 15.2222C2.77778 14.2404 3.57372 13.4444 4.55556 13.4444C5.5374 13.4444 6.33333 14.2404 6.33333 15.2222Z" stroke="white" stroke-linecap="round" stroke-linejoin="round"/>
</svg>
