<svg width="25" height="23" viewBox="0 0 25 23" fill="none" xmlns="http://www.w3.org/2000/svg">
<g id="HEART">
<path id="HEART_2" d="M21.4275 3.52276L21.4268 3.52199C20.8466 2.95726 20.1622 2.50814 19.4106 2.19935L19.4093 2.19882C18.6296 1.87717 17.793 1.71244 16.9482 1.71437L16.9459 1.71438C15.7578 1.71437 14.6009 2.03737 13.5969 2.64555L13.5969 2.64556C13.3567 2.79106 13.1293 2.95038 12.9143 3.12352L12.287 3.62874L11.6597 3.12352C11.4448 2.95038 11.2174 2.79106 10.9772 2.64556L10.9771 2.64555C9.97317 2.03737 8.81627 1.71437 7.62815 1.71437C6.77087 1.71437 5.94491 1.877 5.16469 2.19882L5.16361 2.19927C4.4091 2.50946 3.73052 2.95476 3.14698 3.52229L3.14562 3.52361C2.56728 4.08394 2.10566 4.75114 1.78659 5.48719L21.4275 3.52276ZM21.4275 3.52276C22.0054 4.084 22.4672 4.75131 22.7875 5.48719L21.4275 3.52276ZM6.58427 16.7055L6.58438 16.7056C7.83869 17.8559 9.09084 18.8316 10.0446 19.5288C10.5206 19.8769 10.9204 20.154 11.2062 20.3473C11.3492 20.4439 11.4633 20.5194 11.544 20.572C11.6288 20.6273 11.6697 20.653 11.6694 20.6528L11.6773 20.6577L11.6852 20.6626L12.2856 21.045L12.8861 20.6626L12.8863 20.6625C12.9749 20.6061 15.4692 19.012 17.9873 16.7053L6.58427 16.7055ZM6.58427 16.7055C5.06992 15.3173 3.87398 13.969 3.01763 12.7013L6.58427 16.7055ZM1.28564 7.90059C1.28564 7.06413 1.45461 6.25325 1.78655 5.48727L3.0173 12.7008C2.47732 11.9004 2.06516 11.1229 1.78259 10.3903C1.4461 9.5165 1.28564 8.68115 1.28564 7.90059Z" stroke="#090937" stroke-width="2"/>
</g>
</svg>
