<svg xmlns="http://www.w3.org/2000/svg" xml:space="preserve" width="24" height="24" fill="#090937" stroke="#090937" stroke-width="4.34816" viewBox="-4.35 -4.35 226.11 226.11"><path d="M194.078 22.682c-10.747-8.193-22.606-12.348-35.248-12.348-15.951 0-33.181 6.808-50.126 19.754-16.945-12.946-34.175-19.754-50.126-19.754-12.642 0-24.501 4.155-35.248 12.348C7.606 34.671-.24 49.8.006 67.648c.846 61.117 100.093 133.233 104.317 136.273l4.381 3.153 4.381-3.153c4.225-3.04 103.472-75.156 104.317-136.273.246-17.848-7.6-32.977-23.324-44.966zm-40.245 126.335c-18.374 18.48-36.915 33.188-45.129 39.453-8.214-6.265-26.755-20.972-45.129-39.453-31.479-31.661-48.274-59.873-48.57-81.585-.178-13.013 5.521-23.749 17.421-32.822 8.073-6.156 16.872-9.277 26.152-9.277 17.563 0 34.338 10.936 45.317 20.11l4.809 4.018 4.809-4.018c10.979-9.174 27.754-20.11 45.317-20.11 9.28 0 18.079 3.121 26.152 9.277 11.9 9.073 17.599 19.809 17.421 32.822-.296 21.713-17.092 49.924-48.57 81.585z"/></svg>