<svg width="18" height="19" viewBox="0 0 18 19" fill="none" xmlns="http://www.w3.org/2000/svg">
<path d="M2 9.75967C2 8.40191 2 7.72303 2.27446 7.1263C2.54892 6.52956 3.06437 6.08775 4.09525 5.20413L5.09525 4.34699C6.95857 2.74986 7.89023 1.95129 9 1.95129C10.1098 1.95129 11.0414 2.74986 12.9047 4.34699L13.9047 5.20413C14.9356 6.08775 15.4511 6.52956 15.7255 7.1263C16 7.72303 16 8.40191 16 9.75967V14.0001C16 15.8857 16 16.8285 15.4142 17.4143C14.8284 18.0001 13.8856 18.0001 12 18.0001H6C4.11438 18.0001 3.17157 18.0001 2.58579 17.4143C2 16.8285 2 15.8857 2 14.0001V9.75967Z" stroke="#33363F" stroke-width="1"/>
<path d="M11.5 18V13C11.5 12.4477 11.0523 12 10.5 12H7.5C6.94772 12 6.5 12.4477 6.5 13V18" stroke="#33363F" stroke-width="1" stroke-linecap="round" stroke-linejoin="round"/>
</svg>
