<?xml version="1.0" encoding="utf-8"?>
<!-- Svg Vector Icons : http://www.onlinewebfonts.com/icon -->
<!DOCTYPE svg PUBLIC "-//W3C//DTD SVG 1.1//EN" "http://www.w3.org/Graphics/SVG/1.1/DTD/svg11.dtd">
<svg version="1.1" xmlns="http://www.w3.org/2000/svg" xmlns:xlink="http://www.w3.org/1999/xlink" x="0px" y="0px" viewBox="0 0 256 256" enable-background="new 0 0 256 256" xml:space="preserve">
<metadata> Svg Vector Icons : http://www.onlinewebfonts.com/icon </metadata>
<g><g><path fill="#000000" d="M164,148.4c22.8-12.7,38.3-37,38.3-65c0-41-33.3-74.3-74.3-74.3c-41.1,0-74.3,33.3-74.3,74.3c0,28,15.5,52.3,38.3,65c-43.5,13.8-76.2,52-82,98.5h15c7.2-50.4,50.6-89.2,103-89.2s95.8,38.8,103,89.2h15C240.2,200.4,207.5,162.2,164,148.4z M68.5,83.4c0-32.8,26.6-59.5,59.5-59.5s59.5,26.6,59.5,59.5c0,32.8-26.6,59.5-59.5,59.5S68.5,116.2,68.5,83.4z"/></g></g>
</svg>