<?xml version="1.0" encoding="utf-8"?>
<!-- Generator: Adobe Illustrator 24.1.1, SVG Export Plug-In . SVG Version: 6.00 Build 0)  -->
<svg version="1.1" id="Layer_1" xmlns="http://www.w3.org/2000/svg" xmlns:xlink="http://www.w3.org/1999/xlink" x="0px" y="0px"
	 viewBox="0 0 512 512" style="enable-background:new 0 0 512 512;" xml:space="preserve">
<g>
	<path d="M471.6,17.8H229.1c-22.3,0-40.4,18.1-40.4,40.4v80.8c0,7.4,6,13.5,13.5,13.5c7.4,0,13.5-6,13.5-13.5V58.2
		c0-7.4,6-13.5,13.5-13.5h203.8L329.4,89.1c-18.5,7.9-32.9,29.9-32.9,49.9v256h-67.4c-7.4,0-13.5-6-13.5-13.5v-80.8
		c0-7.4-6-13.5-13.5-13.5c-7.4,0-13.5,6-13.5,13.5v80.8c0,22.3,18.1,40.4,40.4,40.4h67.4v40.4c0,11.7,4.9,21.6,13.3,27.2
		c4.7,3.1,10.1,4.6,15.9,4.6c4.7,0,9.5-1,14.3-3.1l139.1-59.6c18.5-7.9,32.9-29.9,32.9-50V58.2C512,35.9,493.9,17.8,471.6,17.8z
		 M485.1,381.6c0,9.5-7.9,21.4-16.6,25.2l-139.1,59.6c-2.6,1.1-4.3,1-4.8,0.7s-1.2-1.9-1.2-4.7V139.1c0-9.5,7.9-21.5,16.6-25.2
		l143.7-61.6l1.4,5.9V381.6z"/>
	<path d="M225.1,210.4l-80.8-80.8c-5.3-5.3-13.8-5.3-19.1,0c-5.3,5.3-5.3,13.8,0,19.1l57.8,57.8H13.5c-7.4,0-13.5,6-13.5,13.5
		c0,7.4,6,13.5,13.5,13.5h169.6l-57.8,57.8c-5.3,5.3-5.3,13.8,0,19.1c2.6,2.6,6.1,3.9,9.5,3.9c3.4,0,6.9-1.3,9.5-3.9l80.8-80.8
		C230.4,224.1,230.4,215.6,225.1,210.4L225.1,210.4z"/>
</g>
</svg>
