<svg width="12" height="12" viewBox="0 0 12 12" fill="none" xmlns="http://www.w3.org/2000/svg">
<path d="M4.924 2.76089C5.37997 1.58696 5.60795 1 6 1C6.39205 1 6.62003 1.58696 7.076 2.76089L7.09724 2.81555C7.35484 3.47876 7.48364 3.81037 7.74614 4.01192C8.00865 4.21347 8.35324 4.24535 9.04242 4.30909L9.16701 4.32061C10.2949 4.42493 10.8589 4.47709 10.9796 4.84764C11.1003 5.21818 10.6814 5.61169 9.84378 6.39871L9.56422 6.66138C9.14019 7.05978 8.92817 7.25898 8.82935 7.52006C8.81092 7.56877 8.79559 7.61866 8.78348 7.66943C8.71852 7.94161 8.78061 8.23059 8.90478 8.80856L8.94343 8.98846C9.17163 10.0506 9.28573 10.5817 9.08651 10.8108C9.01206 10.8964 8.91531 10.958 8.80783 10.9883C8.5202 11.0694 8.11183 10.7257 7.2951 10.0384C6.75881 9.58714 6.49066 9.36149 6.1828 9.31073C6.0617 9.29076 5.9383 9.29076 5.8172 9.31073C5.50934 9.36149 5.24119 9.58714 4.7049 10.0384C3.88817 10.7257 3.4798 11.0694 3.19217 10.9883C3.08469 10.958 2.98793 10.8964 2.91349 10.8108C2.71427 10.5817 2.82837 10.0506 3.05657 8.98846L3.09522 8.80855C3.21939 8.23059 3.28148 7.94161 3.21652 7.66943C3.20441 7.61866 3.18908 7.56877 3.17065 7.52006C3.07183 7.25898 2.85981 7.05978 2.43578 6.66138L2.15622 6.39871C1.31857 5.61169 0.899741 5.21818 1.02042 4.84764C1.14109 4.47709 1.70506 4.42493 2.83299 4.32061L2.95758 4.30909C3.64676 4.24535 3.99135 4.21347 4.25386 4.01192C4.51636 3.81037 4.64516 3.47876 4.90276 2.81555L4.924 2.76089Z" stroke="black"/>
</svg>
